<?xml version="1.0" encoding="UTF-8" standalone="no" ?>
<!DOCTYPE svg PUBLIC "-//W3C//DTD SVG 1.1//EN" "http://www.w3.org/Graphics/SVG/1.1/DTD/svg11.dtd">
<svg xmlns="http://www.w3.org/2000/svg" xmlns:xlink="http://www.w3.org/1999/xlink" version="1.1" width="1080" height="1080" viewBox="0 0 1080 1080" xml:space="preserve">
<desc>Created with Fabric.js 5.2.4</desc>
<defs>
</defs>
<g transform="matrix(1 0 0 1 540 540)" id="502a25c7-8a82-4f11-9a8b-78e69775acf1"  >
<rect style="stroke: none; stroke-width: 1; stroke-dasharray: none; stroke-linecap: butt; stroke-dashoffset: 0; stroke-linejoin: miter; stroke-miterlimit: 4; fill: rgb(255,255,255); fill-rule: nonzero; opacity: 1; visibility: hidden;" vector-effect="non-scaling-stroke"  x="-540" y="-540" rx="0" ry="0" width="1080" height="1080" />
</g>
<g transform="matrix(1 0 0 1 540 540)" id="702d2dd1-4e5d-4d3c-b7ec-a3af5a6e9105"  >
</g>
<g transform="matrix(1 0 0 1 540 540)" id="e82b2cd6-55e8-4737-b8e5-12dce0279229"  >
<path style="stroke: rgb(0,0,0); stroke-width: 0; stroke-dasharray: none; stroke-linecap: butt; stroke-dashoffset: 0; stroke-linejoin: miter; stroke-miterlimit: 4; fill: rgb(4,150,136); fill-rule: nonzero; opacity: 1;" vector-effect="non-scaling-stroke"  transform=" translate(-64.01, -63.94)" d="M 56.813 127.586 C 54.910000000000004 127.359 52.914 127.066 52.379000000000005 126.934 C 51.59166694823397 126.7473743495131 50.79974801520767 126.58065457413913 50.004000000000005 126.434 C 49.0952052021857 126.25779087340521 48.19353652130749 126.04663427888212 47.300999999999995 125.80099999999999 C 43.156000000000006 124.613 42.859 124.516 39.734 123.238 C 36.859 122.066 31.562 119.328 29.75 118.082 C 29.254 117.738 28.79 117.461 28.719 117.461 C 28.649 117.461 27.489 116.645 26.141000000000002 115.648 C 17.571 109.30499999999999 11.137000000000002 101.60499999999999 6.488000000000003 92.121 C 5.688000000000003 90.49199999999999 5.035000000000003 89.047 5.035000000000003 88.911 C 5.035000000000003 88.777 4.891000000000003 88.406 4.7150000000000025 88.09400000000001 C 4.352000000000002 87.44500000000001 3.8350000000000026 86.04700000000001 3.418000000000003 84.602 C 3.238707911426897 83.98804236296398 3.030135999772326 83.38301696163641 2.793000000000003 82.789 C 2.598000000000003 82.32900000000001 2.441000000000003 81.769 2.441000000000003 81.543 C 2.441000000000003 81.316 2.246000000000003 80.578 2.008000000000003 79.89800000000001 C 1.7700000000000031 79.22300000000001 1.5780000000000032 78.42600000000002 1.5780000000000032 78.12800000000001 C 1.5780000000000032 77.83200000000001 1.3910000000000031 76.80800000000002 1.1600000000000033 75.85200000000002 C 0.598 73.492 0 67.379 0 63.953 C 0 60.531000000000006 0.598 54.418000000000006 1.16 52.059000000000005 C 1.39 51.102000000000004 1.5779999999999998 50.059000000000005 1.5779999999999998 49.739000000000004 C 1.5779999999999998 49.418000000000006 1.7229999999999999 48.789 1.898 48.339000000000006 C 2.078 47.891000000000005 2.308 47.086000000000006 2.4139999999999997 46.55100000000001 C 2.5239999999999996 46.01600000000001 2.7739999999999996 45.09400000000001 2.9769999999999994 44.49600000000001 L 3.5669999999999993 42.77000000000001 C 3.999999999999999 41.47700000000001 4.401999999999999 40.38300000000001 4.593999999999999 39.95700000000001 C 4.704 39.71900000000001 5.132999999999999 38.74700000000001 5.550999999999999 37.79700000000001 C 6.226999999999999 36.262000000000015 7.675999999999999 33.36700000000001 8.523 31.85200000000001 C 8.831999999999999 31.29700000000001 8.949 31.11300000000001 10.620999999999999 28.50000000000001 C 13.27 24.35200000000001 17.796999999999997 19.19100000000001 22.011 15.512000000000011 C 23.496 14.21500000000001 28.457 10.449000000000012 28.68 10.449000000000012 C 28.742 10.449000000000012 29.21 10.168000000000012 29.723 9.824000000000012 C 31.07 8.922000000000013 32.391 8.156000000000013 34.113 7.293000000000012 C 34.73113472480186 6.9872943801691205 35.343251020167926 6.669567348859828 35.948999999999984 6.340000000000016 C 36.233999999999995 6.176000000000012 36.769 5.930000000000011 39.516 4.700000000000012 C 40.120999999999995 4.430000000000012 40.772999999999996 4.184000000000012 42.652 3.5270000000000117 C 43.066 3.3830000000000116 43.898 3.078000000000012 44.492000000000004 2.8550000000000115 C 45.09 2.6330000000000116 45.793000000000006 2.4490000000000114 46.05500000000001 2.4490000000000114 C 46.31300000000001 2.4490000000000114 46.992000000000004 2.2690000000000112 47.56300000000001 2.0470000000000113 C 48.13300000000001 1.8240000000000112 49.168000000000006 1.5700000000000114 49.86700000000001 1.4840000000000113 C 50.56300000000001 1.4020000000000112 51.488000000000014 1.2070000000000114 51.92200000000001 1.0540000000000114 C 52.35200000000001 0.9060000000000114 53.53200000000001 0.7140000000000113 54.54300000000001 0.6290000000000113 C 55.86065967901647 0.5099522521323252 57.174817521157884 0.35489429816232554 58.484000000000016 0.16400000000000792 C 61.17200000000002 -0.2299999999999887 67.01600000000002 -0.2299999999999887 69.67600000000002 0.1640000000000113 C 70.93236600867434 0.3442941445858012 72.19310519522583 0.4926752442989693 73.45700000000004 0.6090000000000328 C 74.41000000000003 0.6880000000000113 75.62500000000003 0.8870000000000113 76.16000000000003 1.0510000000000113 C 76.69500000000002 1.2110000000000112 77.62100000000002 1.4110000000000111 78.21500000000003 1.4840000000000113 C 78.80900000000003 1.5630000000000113 79.80900000000003 1.8090000000000113 80.43700000000003 2.0350000000000112 C 81.06700000000002 2.2650000000000112 81.78100000000002 2.4490000000000114 82.02700000000003 2.4490000000000114 C 82.27300000000004 2.4490000000000114 82.78100000000003 2.5860000000000114 83.15200000000003 2.7580000000000116 C 83.52700000000003 2.9260000000000117 84.32000000000004 3.2070000000000114 84.91800000000003 3.3830000000000116 C 85.51200000000003 3.5630000000000117 86.53100000000003 3.9180000000000117 87.18800000000003 4.180000000000011 C 87.84000000000003 4.441000000000011 88.71500000000003 4.785000000000011 89.13300000000002 4.941000000000011 C 89.90300000000002 5.231000000000011 95.59300000000002 8.078000000000012 96.36700000000002 8.563000000000011 C 102.64800000000002 12.480000000000011 105.87900000000002 15.039000000000012 110.22300000000001 19.52700000000001 C 115.46100000000001 24.94100000000001 118.93800000000002 30.097000000000012 122.47700000000002 37.68700000000001 C 122.72700000000002 38.22300000000001 123.10900000000002 39.01600000000001 123.32800000000002 39.445000000000014 C 123.54300000000002 39.87900000000001 123.72300000000001 40.387000000000015 123.72300000000001 40.57500000000002 C 123.72300000000001 40.765000000000015 123.90300000000002 41.335000000000015 124.12500000000001 41.844000000000015 C 124.72700000000002 43.22700000000002 125.24200000000002 44.801000000000016 125.48500000000001 46.00400000000002 C 125.60500000000002 46.59400000000002 125.82800000000002 47.32400000000002 125.98000000000002 47.62500000000002 C 126.13300000000002 47.92500000000002 126.31200000000001 48.688000000000024 126.38300000000002 49.313000000000024 C 126.45300000000002 49.937000000000026 126.66000000000003 50.96100000000003 126.83600000000003 51.58200000000002 C 127.85600000000002 55.11300000000002 128.36300000000003 65.51600000000002 127.74600000000002 70.11700000000002 C 127.56300000000002 71.48400000000002 127.35600000000002 73.13700000000001 127.28600000000003 73.78900000000002 C 127.16800000000003 74.90600000000002 126.57800000000003 77.79300000000002 126.07400000000003 79.73400000000001 L 125.55400000000003 81.78900000000002 C 124.57400000000003 85.74600000000001 122.15200000000003 91.38300000000001 119.19500000000004 96.59800000000001 C 118.02300000000004 98.668 114.09400000000004 104.26600000000002 113.35200000000003 104.92200000000001 C 113.28500000000004 104.98000000000002 112.95300000000003 105.37200000000001 112.61700000000003 105.78500000000001 C 112.28100000000003 106.20300000000002 111.20300000000003 107.37100000000001 110.22700000000003 108.379 C 105.92600000000003 112.82000000000001 102.45700000000004 115.566 96.36700000000003 119.348 C 95.64500000000004 119.797 89.52000000000004 122.789 88.37500000000003 123.254 C 87.78100000000003 123.492 86.78900000000003 123.894 86.17200000000003 124.144 C 85.55900000000003 124.391 84.87500000000003 124.598 84.66000000000003 124.602 C 84.44500000000002 124.605 83.87900000000002 124.797 83.40200000000003 125.027 C 82.92600000000003 125.257 82.32000000000004 125.449 82.05100000000003 125.453 C 81.78500000000003 125.45700000000001 81.00800000000002 125.645 80.32400000000003 125.87100000000001 C 79.64100000000002 126.10100000000001 78.69100000000003 126.34800000000001 78.21400000000003 126.421 C 77.73800000000003 126.49600000000001 76.71900000000002 126.69900000000001 75.94500000000002 126.87100000000001 C 75.17200000000003 127.043 72.83500000000002 127.379 70.75800000000002 127.617 C 66.12475313111763 128.15740239642878 61.443798438105055 128.14699654519296 56.813000000000024 127.58600000000001 z M 61.516000000000005 115.086 C 61.816 114.852 62.12500000000001 114.386 62.20700000000001 114.059 C 62.38700000000001 113.336 91.441 55.089 91.988 54.358999999999995 C 92.449 53.742 92.492 52.754 92.07 52.40599999999999 C 91.848 52.218999999999994 89.06599999999999 52.15999999999999 81.63999999999999 52.17199999999999 C 76.07 52.18399999999999 71.38699999999999 52.18799999999999 71.23399999999998 52.18399999999999 C 71.00799999999998 52.17599999999999 70.96099999999998 48.45399999999999 70.98399999999998 32.511999999999986 C 70.99999999999999 21.694999999999986 70.94899999999998 12.745999999999988 70.87099999999998 12.621999999999986 C 70.79299999999998 12.495999999999986 70.48799999999999 12.394999999999985 70.19099999999997 12.394999999999985 C 69.77299999999997 12.394999999999985 69.57799999999997 12.574999999999985 69.32099999999997 13.202999999999985 C 68.83599999999997 14.370999999999984 67.49599999999997 17.022999999999985 60.97299999999997 29.687999999999985 C 59.61805205362958 32.31631231932844 58.26638433462798 34.94631436690375 56.918000000000134 37.5779999999985 C 55.76199999999997 39.83999999999998 53.937999999999974 43.390999999999984 52.870999999999974 45.46799999999998 C 49.998988919731296 51.05124737890307 47.13298726007782 56.63758394719346 44.27300000000002 62.22700000000318 C 39.339999999999975 71.86299999999999 38.742999999999974 73.01199999999999 38.53099999999998 73.26599999999998 C 38.12099999999998 73.76199999999997 37.897999999999975 74.90599999999998 38.12899999999998 75.33599999999997 C 38.33899999999998 75.72999999999998 38.757999999999974 75.74599999999997 49.171999999999976 75.72999999999998 C 55.12499999999998 75.72299999999997 60.034999999999975 75.75399999999998 60.08599999999998 75.79999999999997 C 60.22299999999998 75.94099999999997 60.171999999999976 113.10999999999997 60.03099999999998 113.99599999999997 C 59.937999999999974 114.57799999999996 59.99999999999998 114.88599999999997 60.26599999999998 115.15199999999997 C 60.72599999999998 115.61299999999997 60.851999999999975 115.60899999999997 61.51599999999998 115.08599999999997 z M 61.516000000000005 115.086" stroke-linecap="round" />
</g>
</svg>